<svg xmlns="http://www.w3.org/2000/svg" version="1.1" width="50px" height="50px" style="shape-rendering:geometricPrecision; text-rendering:geometricPrecision; image-rendering:optimizeQuality; fill-rule:evenodd; clip-rule:evenodd" xmlns:xlink="http://www.w3.org/1999/xlink">
    <g><path style="opacity:1" fill="#4c4c4c" d="M 42.5,8.5 C 39.8732,10.6007 36.8732,11.9341 33.5,12.5C 32.4168,12.5394 31.4168,12.8728 30.5,13.5C 29.1667,12.5 27.8333,11.5 26.5,10.5C 25.8333,12.1667 25.1667,13.8333 24.5,15.5C 23.5539,15.9867 22.5539,16.3201 21.5,16.5C 17.9139,16.1322 14.5806,15.1322 11.5,13.5C 12.7757,12.3554 14.109,12.3554 15.5,13.5C 16.1667,12.8333 16.8333,12.1667 17.5,11.5C 18.914,12.624 20.414,13.624 22,14.5C 21.8241,11.3425 19.9907,9.84253 16.5,10C 18.7769,8.10489 21.4435,6.93822 24.5,6.5C 25.8532,5.4763 26.5198,4.14297 26.5,2.5C 27.6009,1.40168 28.9343,1.23502 30.5,2C 34.7216,3.9409 38.7216,6.10756 42.5,8.5 Z"/></g>
    <g><path style="opacity:1" fill="#303031" d="M 42.5,8.5 C 43.4345,9.56764 43.7678,10.901 43.5,12.5C 41.5389,16.0914 39.2056,18.7581 36.5,20.5C 35.8506,18.3759 35.0173,16.3759 34,14.5C 33.7366,17.1036 32.7366,19.7702 31,22.5C 29.2502,20.576 27.4169,18.9093 25.5,17.5C 28.204,15.8293 30.8707,14.1626 33.5,12.5C 36.8732,11.9341 39.8732,10.6007 42.5,8.5 Z"/></g>
    <g><path style="opacity:1" fill="#404041" d="M 26.5,2.5 C 26.5198,4.14297 25.8532,5.4763 24.5,6.5C 21.4435,6.93822 18.7769,8.10489 16.5,10C 19.9907,9.84253 21.8241,11.3425 22,14.5C 20.414,13.624 18.914,12.624 17.5,11.5C 16.8333,12.1667 16.1667,12.8333 15.5,13.5C 14.109,12.3554 12.7757,12.3554 11.5,13.5C 14.5806,15.1322 17.9139,16.1322 21.5,16.5C 22.5539,16.3201 23.5539,15.9867 24.5,15.5C 25.1667,13.8333 25.8333,12.1667 26.5,10.5C 27.8333,11.5 29.1667,12.5 30.5,13.5C 31.4168,12.8728 32.4168,12.5394 33.5,12.5C 30.8707,14.1626 28.204,15.8293 25.5,17.5C 25.1667,17.5 24.8333,17.5 24.5,17.5C 21.9664,17.2591 20.2998,18.2591 19.5,20.5C 16.7349,17.441 13.4015,16.1077 9.5,16.5C 8.14011,15.8201 6.80678,15.1534 5.5,14.5C 5.41423,13.5041 5.74756,12.6708 6.5,12C 13.0672,8.54899 19.7339,5.38232 26.5,2.5 Z"/></g>
    <g><path style="opacity:1" fill="#434344" d="M 5.5,14.5 C 6.80678,15.1534 8.14011,15.8201 9.5,16.5C 13.4015,16.1077 16.7349,17.441 19.5,20.5C 19.6641,23.1873 19.4974,25.854 19,28.5C 16.876,29.2272 14.7094,29.8938 12.5,30.5C 11.8933,30.3764 11.56,30.0431 11.5,29.5C 14.0983,28.5278 14.0983,27.5278 11.5,26.5C 11.1212,23.6005 9.78783,21.2671 7.5,19.5C 8.44394,17.8634 7.77727,16.8634 5.5,16.5C 5.5,15.8333 5.5,15.1667 5.5,14.5 Z"/></g>
    <g><path style="opacity:1" fill="#262627" d="M 43.5,12.5 C 43.8076,14.924 43.4742,17.2573 42.5,19.5C 39.8333,20.8333 37.1667,22.1667 34.5,23.5C 33.6143,24.325 33.281,25.325 33.5,26.5C 31.548,29.1512 28.8813,30.8179 25.5,31.5C 21.7283,30.8093 20.0617,28.476 20.5,24.5C 20.8333,22.8333 21.1667,21.1667 21.5,19.5C 22.7387,19.0576 23.7387,18.3909 24.5,17.5C 24.8333,17.5 25.1667,17.5 25.5,17.5C 27.4169,18.9093 29.2502,20.576 31,22.5C 32.7366,19.7702 33.7366,17.1036 34,14.5C 35.0173,16.3759 35.8506,18.3759 36.5,20.5C 39.2056,18.7581 41.5389,16.0914 43.5,12.5 Z"/></g>
    <g><path style="opacity:0.833" fill="#3a3a3c" d="M 5.5,16.5 C 7.77727,16.8634 8.44394,17.8634 7.5,19.5C 9.78783,21.2671 11.1212,23.6005 11.5,26.5C 6.07028,25.3469 4.07028,22.0135 5.5,16.5 Z"/></g>
    <g><path style="opacity:1" fill="#4b4b4b" d="M 33.5,26.5 C 36.2028,28.1807 38.8695,29.8474 41.5,31.5C 37.7197,32.9795 34.0531,34.6461 30.5,36.5C 29.209,36.7373 28.209,36.404 27.5,35.5C 30.6339,34.0991 33.6339,32.4325 36.5,30.5C 36.3333,30.1667 36.1667,29.8333 36,29.5C 33.3413,31.2465 30.508,32.5798 27.5,33.5C 25.0065,33.8693 24.3398,33.2027 25.5,31.5C 28.8813,30.8179 31.548,29.1512 33.5,26.5 Z"/></g>
    <g><path style="opacity:0.953" fill="#333333" d="M 7.5,31.5 C 9.9225,32.4713 12.2558,33.3047 14.5,34C 11.716,31.9195 12.0493,31.2528 15.5,32C 17.3348,32.9277 17.6682,34.0944 16.5,35.5C 18.9526,37.2919 21.6192,38.6252 24.5,39.5C 24.5,40.1667 24.5,40.8333 24.5,41.5C 24.7845,43.4147 24.4511,45.0813 23.5,46.5C 18.3945,43.6132 13.0612,41.2798 7.5,39.5C 7.5,36.8333 7.5,34.1667 7.5,31.5 Z"/></g>
    <g><path style="opacity:1" fill="#3a3a3b" d="M 24.5,17.5 C 23.7387,18.3909 22.7387,19.0576 21.5,19.5C 21.1667,21.1667 20.8333,22.8333 20.5,24.5C 20.0617,28.476 21.7283,30.8093 25.5,31.5C 24.3398,33.2027 25.0065,33.8693 27.5,33.5C 25.8113,34.3037 24.1446,35.3037 22.5,36.5C 24.1916,37.2008 25.8583,36.8675 27.5,35.5C 28.209,36.404 29.209,36.7373 30.5,36.5C 28.7496,37.8698 26.7496,38.8698 24.5,39.5C 21.6192,38.6252 18.9526,37.2919 16.5,35.5C 17.6682,34.0944 17.3348,32.9277 15.5,32C 12.0493,31.2528 11.716,31.9195 14.5,34C 12.2558,33.3047 9.9225,32.4713 7.5,31.5C 8.51369,30.3263 9.84702,29.6596 11.5,29.5C 11.56,30.0431 11.8933,30.3764 12.5,30.5C 14.7094,29.8938 16.876,29.2272 19,28.5C 19.4974,25.854 19.6641,23.1873 19.5,20.5C 20.2998,18.2591 21.9664,17.2591 24.5,17.5 Z"/></g>
    <g><path style="opacity:1" fill="#2c2c2d" d="M 27.5,35.5 C 25.8583,36.8675 24.1916,37.2008 22.5,36.5C 24.1446,35.3037 25.8113,34.3037 27.5,33.5C 30.508,32.5798 33.3413,31.2465 36,29.5C 36.1667,29.8333 36.3333,30.1667 36.5,30.5C 33.6339,32.4325 30.6339,34.0991 27.5,35.5 Z"/></g>
    <g><path style="opacity:1" fill="#242425" d="M 41.5,31.5 C 41.5,32.8333 41.5,34.1667 41.5,35.5C 40.2502,35.5774 39.4169,36.244 39,37.5C 38.6667,36.5 38.3333,35.5 38,34.5C 37.7811,35.938 37.2811,37.2713 36.5,38.5C 35.914,38.2907 35.414,37.9574 35,37.5C 33.3757,41.5117 31.0423,42.5117 28,40.5C 27.0606,45.0451 25.894,45.3784 24.5,41.5C 24.5,40.8333 24.5,40.1667 24.5,39.5C 26.7496,38.8698 28.7496,37.8698 30.5,36.5C 34.0531,34.6461 37.7197,32.9795 41.5,31.5 Z"/></g>
    <g><path style="opacity:0.785" fill="#2a2a2b" d="M 41.5,35.5 C 41.5,36.8333 41.5,38.1667 41.5,39.5C 35.473,41.3462 29.8064,44.0129 24.5,47.5C 23.8933,47.3764 23.56,47.0431 23.5,46.5C 24.4511,45.0813 24.7845,43.4147 24.5,41.5C 25.894,45.3784 27.0606,45.0451 28,40.5C 31.0423,42.5117 33.3757,41.5117 35,37.5C 35.414,37.9574 35.914,38.2907 36.5,38.5C 37.2811,37.2713 37.7811,35.938 38,34.5C 38.3333,35.5 38.6667,36.5 39,37.5C 39.4169,36.244 40.2502,35.5774 41.5,35.5 Z"/></g>
</svg>
