<svg xmlns="http://www.w3.org/2000/svg" version="1.1" width="30px" height="30px" viewBox="0 0 32 32">
    <g><path style="opacity:1" fill="#26ad96" d="M 21.5,3.5 C 21.1072,6.51326 21.7739,9.17993 23.5,11.5C 22.5,11.8333 21.8333,12.5 21.5,13.5C 19.1799,11.7739 16.5133,11.1072 13.5,11.5C 13.6154,7.31552 15.9487,4.31552 20.5,2.5C 21.1067,2.62358 21.44,2.95691 21.5,3.5 Z"/></g>
    <g><path style="opacity:1" fill="#4a3e1e" d="M 21.5,3.5 C 22.29,4.60853 22.79,5.94186 23,7.5C 24.5445,6.17875 25.7112,6.51208 26.5,8.5C 25.8075,9.51776 25.1408,10.5178 24.5,11.5C 24.1667,11.5 23.8333,11.5 23.5,11.5C 21.7739,9.17993 21.1072,6.51326 21.5,3.5 Z"/></g>
    <g><path style="opacity:1" fill="#503e1a" d="M 13.5,11.5 C 16.5133,11.1072 19.1799,11.7739 21.5,13.5C 21.5,13.8333 21.5,14.1667 21.5,14.5C 19.5,16.1667 17.5,17.8333 15.5,19.5C 15.5106,17.9826 16.1772,16.8159 17.5,16C 16.9056,15.5357 16.2389,15.369 15.5,15.5C 15.9528,14.5416 16.6195,13.7083 17.5,13C 15.9419,12.79 14.6085,12.29 13.5,11.5 Z"/></g>
    <g><path style="opacity:1" fill="#1c7d6c" d="M 23.5,11.5 C 23.8333,11.5 24.1667,11.5 24.5,11.5C 27.0835,13.4191 26.7502,15.0858 23.5,16.5C 22.4777,16.1445 21.811,15.4778 21.5,14.5C 21.5,14.1667 21.5,13.8333 21.5,13.5C 21.8333,12.5 22.5,11.8333 23.5,11.5 Z"/></g>
    <g><path style="opacity:1" fill="#60481c" d="M 15.5,15.5 C 16.2389,15.369 16.9056,15.5357 17.5,16C 16.1772,16.8159 15.5106,17.9826 15.5,19.5C 13.8333,21.8333 11.8333,23.8333 9.5,25.5C 9.73731,24.209 9.40397,23.209 8.5,22.5C 10.5,19.8333 12.8333,17.5 15.5,15.5 Z"/></g>
    <g><path style="opacity:1" fill="#5e461b" d="M 8.5,22.5 C 9.40397,23.209 9.73731,24.209 9.5,25.5C 8.52134,27.1454 7.188,28.4787 5.5,29.5C 4.5,29.1667 3.83333,28.5 3.5,27.5C 4.85452,25.4788 6.52119,23.8121 8.5,22.5 Z"/></g>
</svg>