<svg xmlns="http://www.w3.org/2000/svg" version="1.1" width="30px" height="30px" viewBox="0 0 32 32">
    <g><path style="opacity:1" fill="#583f13" d="M 28.5,15.5 C 26.2872,16.7729 23.9538,17.7729 21.5,18.5C 21.1667,17.5 20.5,16.8333 19.5,16.5C 16.5,13.1667 13.5,9.83333 10.5,6.5C 13.5987,4.44048 16.932,3.27381 20.5,3C 23.6667,6.16667 26.8333,9.33333 30,12.5C 30.5847,13.9976 30.0847,14.9976 28.5,15.5 Z"/></g>
    <g><path style="opacity:1" fill="#b61a35" d="M 10.5,6.5 C 13.5,9.83333 16.5,13.1667 19.5,16.5C 18.5,16.8333 17.8333,17.5 17.5,18.5C 13.8333,15.5 10.5,12.1667 7.5,8.5C 8.29049,7.59872 9.29049,6.93205 10.5,6.5 Z"/></g>
    <g><path style="opacity:1" fill="#5b4013" d="M 7.5,8.5 C 10.5,12.1667 13.8333,15.5 17.5,18.5C 17.5,18.8333 17.5,19.1667 17.5,19.5C 17.5,20.1667 17.5,20.8333 17.5,21.5C 15.2549,22.6352 12.9216,23.1352 10.5,23C 7.96376,20.295 5.29709,17.795 2.5,15.5C 2.36596,13.7085 2.69929,12.0418 3.5,10.5C 4.51369,9.32627 5.84702,8.6596 7.5,8.5 Z"/></g>
    <g><path style="opacity:1" fill="#bababa" d="M 2.5,15.5 C 5.29709,17.795 7.96376,20.295 10.5,23C 12.9216,23.1352 15.2549,22.6352 17.5,21.5C 17.5,22.5 17.5,23.5 17.5,24.5C 15.2549,25.6352 12.9216,26.1352 10.5,26C 6.78618,23.1424 4.11951,19.6424 2.5,15.5 Z"/></g>
    <g><path style="opacity:1" fill="#d39918" d="M 19.5,16.5 C 20.5,16.8333 21.1667,17.5 21.5,18.5C 21.5,18.8333 21.5,19.1667 21.5,19.5C 20.1667,20.8333 18.8333,20.8333 17.5,19.5C 17.5,19.1667 17.5,18.8333 17.5,18.5C 17.8333,17.5 18.5,16.8333 19.5,16.5 Z"/></g>
    <g><path style="opacity:1" fill="#a2a2a2" d="M 28.5,15.5 C 28.5,16.1667 28.5,16.8333 28.5,17.5C 26.6644,19.588 24.3311,20.9213 21.5,21.5C 21.5,20.8333 21.5,20.1667 21.5,19.5C 21.5,19.1667 21.5,18.8333 21.5,18.5C 23.9538,17.7729 26.2872,16.7729 28.5,15.5 Z"/></g>
    <g><path style="opacity:1" fill="#882120" d="M 17.5,19.5 C 18.8333,20.8333 20.1667,20.8333 21.5,19.5C 21.5,20.1667 21.5,20.8333 21.5,21.5C 21.5,22.5 21.5,23.5 21.5,24.5C 20.4863,25.6737 19.153,26.3404 17.5,26.5C 17.5,25.8333 17.5,25.1667 17.5,24.5C 17.5,23.5 17.5,22.5 17.5,21.5C 17.5,20.8333 17.5,20.1667 17.5,19.5 Z"/></g>
    <g><path style="opacity:1" fill="#2f1d07" d="M 28.5,17.5 C 30.0847,18.0024 30.5847,19.0024 30,20.5C 27.3413,22.2465 24.508,23.5798 21.5,24.5C 21.5,23.5 21.5,22.5 21.5,21.5C 24.3311,20.9213 26.6644,19.588 28.5,17.5 Z"/></g>
    <g><path style="opacity:1" fill="#37200a" d="M 3.5,10.5 C 2.69929,12.0418 2.36596,13.7085 2.5,15.5C 4.11951,19.6424 6.78618,23.1424 10.5,26C 12.9216,26.1352 15.2549,25.6352 17.5,24.5C 17.5,25.1667 17.5,25.8333 17.5,26.5C 15.575,28.4619 13.2417,29.2952 10.5,29C 7.33333,25.8333 4.16667,22.6667 1,19.5C 0.333333,16.8333 0.333333,14.1667 1,11.5C 1.67076,10.7476 2.5041,10.4142 3.5,10.5 Z"/></g>
</svg>