<svg xmlns="http://www.w3.org/2000/svg" version="1.1" width="30px" height="30px" viewBox="0 0 32 32">
    <g><path style="opacity:1" fill="#0d3c34" d="M 23.5,6.5 C 21.8333,6.5 20.1667,6.5 18.5,6.5C 18.5,8.5 18.5,10.5 18.5,12.5C 18.244,16.2693 18.5773,19.9359 19.5,23.5C 17.5467,17.9262 16.88,11.9262 17.5,5.5C 19.7354,5.20528 21.7354,5.53862 23.5,6.5 Z"/></g>
    <g><path style="opacity:1" fill="#b0f5e5" d="M 7.5,6.5 C 9.41467,6.21552 11.0813,6.54885 12.5,7.5C 9.53922,8.39277 7.70588,10.3928 7,13.5C 6.50454,11.5273 6.33788,9.5273 6.5,7.5C 6.5,6.83333 6.83333,6.5 7.5,6.5 Z"/></g>
    <g><path style="opacity:1" fill="#092a24" d="M 7.5,6.5 C 9.26465,5.53862 11.2646,5.20528 13.5,5.5C 14.12,11.9262 13.4533,17.9262 11.5,23.5C 12.4491,18.2599 12.7825,12.9265 12.5,7.5C 11.0813,6.54885 9.41467,6.21552 7.5,6.5 Z"/></g>
    <g><path style="opacity:1" fill="#b3fcec" d="M 23.5,6.5 C 21.3674,8.09051 19.7007,10.0905 18.5,12.5C 18.5,10.5 18.5,8.5 18.5,6.5C 20.1667,6.5 21.8333,6.5 23.5,6.5 Z"/></g>
    <g><path style="opacity:1" fill="#3accbb" d="M 6.5,7.5 C 6.33788,9.5273 6.50454,11.5273 7,13.5C 7.70588,10.3928 9.53922,8.39277 12.5,7.5C 12.7825,12.9265 12.4491,18.2599 11.5,23.5C 11.1583,24.3382 10.4916,24.6716 9.5,24.5C 7.16667,24.5 4.83333,24.5 2.5,24.5C 2.5,23.1667 2.5,21.8333 2.5,20.5C 3.12167,19.3734 3.95501,18.3734 5,17.5C 5.17871,13.9748 5.67871,10.6414 6.5,7.5 Z"/></g>
    <g><path style="opacity:1" fill="#3acbba" d="M 23.5,6.5 C 24.1174,6.61071 24.6174,6.94404 25,7.5C 25.3333,10.8333 25.6667,14.1667 26,17.5C 27.045,18.3734 27.8783,19.3734 28.5,20.5C 28.5,21.8333 28.5,23.1667 28.5,24.5C 26.1667,24.5 23.8333,24.5 21.5,24.5C 20.5084,24.6716 19.8417,24.3382 19.5,23.5C 18.5773,19.9359 18.244,16.2693 18.5,12.5C 19.7007,10.0905 21.3674,8.09051 23.5,6.5 Z"/></g>
    <g><path style="opacity:1" fill="#08251f" d="M 28.5,20.5 C 29.4511,21.9187 29.7845,23.5853 29.5,25.5C 26.6146,25.8064 23.9479,25.4731 21.5,24.5C 23.8333,24.5 26.1667,24.5 28.5,24.5C 28.5,23.1667 28.5,21.8333 28.5,20.5 Z"/></g>
    <g><path style="opacity:1" fill="#092c26" d="M 2.5,20.5 C 2.5,21.8333 2.5,23.1667 2.5,24.5C 4.83333,24.5 7.16667,24.5 9.5,24.5C 7.0521,25.4731 4.38544,25.8064 1.5,25.5C 1.21552,23.5853 1.54885,21.9187 2.5,20.5 Z"/></g>
</svg>