<svg xmlns="http://www.w3.org/2000/svg" version="1.1" width="30px" height="30px" viewBox="0 0 32 32">
    <g><path style="opacity:1" fill="#4b3816" d="M 22.5,3.5 C 25.3962,2.22482 28.3962,2.22482 31.5,3.5C 31.5,3.83333 31.5,4.16667 31.5,4.5C 31.1667,4.5 30.8333,4.5 30.5,4.5C 29.8333,4.5 29.1667,4.5 28.5,4.5C 26.7354,3.53862 24.7354,3.20528 22.5,3.5 Z"/></g>
    <g><path style="opacity:1" fill="#735621" d="M 22.5,3.5 C 24.7354,3.20528 26.7354,3.53862 28.5,4.5C 27.209,4.26269 26.209,4.59603 25.5,5.5C 24.1266,5.65668 22.7932,5.49001 21.5,5C 22.056,4.61742 22.3893,4.11742 22.5,3.5 Z"/></g>
    <g><path style="opacity:1" fill="#463415" d="M 22.5,3.5 C 22.3893,4.11742 22.056,4.61742 21.5,5C 22.7932,5.49001 24.1266,5.65668 25.5,5.5C 23.7857,6.73838 21.7857,7.40505 19.5,7.5C 21.0311,6.07546 20.6977,5.40879 18.5,5.5C 17.8333,5.5 17.1667,5.5 16.5,5.5C 18.2143,4.26162 20.2143,3.59495 22.5,3.5 Z"/></g>
    <g><path style="opacity:1" fill="#2c2314" d="M 25.5,5.5 C 26.209,4.59603 27.209,4.26269 28.5,4.5C 29.1667,4.5 29.8333,4.5 30.5,4.5C 30.2172,5.28913 29.7172,5.9558 29,6.5C 27.9887,5.66337 26.8221,5.33003 25.5,5.5 Z"/></g>
    <g><path style="opacity:1" fill="#5c441a" d="M 16.5,5.5 C 17.1667,5.5 17.8333,5.5 18.5,5.5C 17.1667,6.5 15.8333,7.5 14.5,8.5C 14.1667,8.5 13.8333,8.5 13.5,8.5C 13.5,7.83333 13.1667,7.5 12.5,7.5C 13.5137,6.32627 14.847,5.6596 16.5,5.5 Z"/></g>
    <g><path style="opacity:1" fill="#674d1e" d="M 18.5,5.5 C 20.6977,5.40879 21.0311,6.07546 19.5,7.5C 18.4863,8.67373 17.153,9.3404 15.5,9.5C 14.8333,9.5 14.5,9.16667 14.5,8.5C 15.8333,7.5 17.1667,6.5 18.5,5.5 Z"/></g>
    <g><path style="opacity:1" fill="#61594e" d="M 12.5,7.5 C 13.1667,7.5 13.5,7.83333 13.5,8.5C 11.5,9.83333 9.83333,11.5 8.5,13.5C 7.83333,13.5 7.5,13.1667 7.5,12.5C 8.83333,10.5 10.5,8.83333 12.5,7.5 Z"/></g>
    <g><path style="opacity:1" fill="#959695" d="M 13.5,8.5 C 12.8333,11.1667 11.1667,12.8333 8.5,13.5C 9.83333,11.5 11.5,9.83333 13.5,8.5 Z"/></g>
    <g><path style="opacity:1" fill="#565656" d="M 13.5,8.5 C 13.8333,8.5 14.1667,8.5 14.5,8.5C 14.5,9.16667 14.8333,9.5 15.5,9.5C 13.8333,11.8333 11.8333,13.8333 9.5,15.5C 9.5,14.8333 9.16667,14.5 8.5,14.5C 8.5,14.1667 8.5,13.8333 8.5,13.5C 11.1667,12.8333 12.8333,11.1667 13.5,8.5 Z"/></g>
    <g><path style="opacity:1" fill="#584119" d="M 7.5,12.5 C 7.5,13.1667 7.83333,13.5 8.5,13.5C 8.5,13.8333 8.5,14.1667 8.5,14.5C 7.26315,15.9649 6.26315,17.6316 5.5,19.5C 5.16667,19.5 4.83333,19.5 4.5,19.5C 4.70732,16.7594 5.70732,14.4261 7.5,12.5 Z"/></g>
    <g><path style="opacity:1" fill="#5c451b" d="M 8.5,14.5 C 9.16667,14.5 9.5,14.8333 9.5,15.5C 8.73623,18.0177 7.73623,20.351 6.5,22.5C 6.44312,21.391 6.10978,20.391 5.5,19.5C 6.26315,17.6316 7.26315,15.9649 8.5,14.5 Z"/></g>
    <g><path style="opacity:1" fill="#4b3816" d="M 3.5,22.5 C 3.20528,24.7354 3.53862,26.7354 4.5,28.5C 4.5,29.1667 4.5,29.8333 4.5,30.5C 4.5,30.8333 4.5,31.1667 4.5,31.5C 4.16667,31.5 3.83333,31.5 3.5,31.5C 2.22482,28.3962 2.22482,25.3962 3.5,22.5 Z"/></g>
    <g><path style="opacity:1" fill="#5e461b" d="M 4.5,19.5 C 4.83333,19.5 5.16667,19.5 5.5,19.5C 6.10978,20.391 6.44312,21.391 6.5,22.5C 6.73731,23.791 6.40397,24.791 5.5,25.5C 4.59603,26.209 4.26269,27.209 4.5,28.5C 3.53862,26.7354 3.20528,24.7354 3.5,22.5C 3.26269,21.209 3.59603,20.209 4.5,19.5 Z"/></g>
    <g><path style="opacity:1" fill="#2c2314" d="M 5.5,25.5 C 5.33003,26.8221 5.66337,27.9887 6.5,29C 5.9558,29.7172 5.28913,30.2172 4.5,30.5C 4.5,29.8333 4.5,29.1667 4.5,28.5C 4.26269,27.209 4.59603,26.209 5.5,25.5 Z"/></g>
</svg>