<svg xmlns="http://www.w3.org/2000/svg" version="1.1" width="30px" height="30px" viewBox="0 0 32 32">
    <g><path style="opacity:1" fill="#0d3b32" d="M 11.5,6.5 C 8.85547,4.75807 5.85547,4.09141 2.5,4.5C 2.03569,8.50247 2.70236,12.1691 4.5,15.5C 3.5,15.5 2.5,15.5 1.5,15.5C 1.5,11.5 1.5,7.5 1.5,3.5C 4.83333,3.5 8.16667,3.5 11.5,3.5C 11.5,4.5 11.5,5.5 11.5,6.5 Z"/></g>
    <g><path style="opacity:1" fill="#0c3931" d="M 26.5,15.5 C 28.2976,12.1691 28.9643,8.50247 28.5,4.5C 25.1445,4.09141 22.1445,4.75807 19.5,6.5C 19.5,5.5 19.5,4.5 19.5,3.5C 22.8333,3.5 26.1667,3.5 29.5,3.5C 29.5,7.5 29.5,11.5 29.5,15.5C 28.5,15.5 27.5,15.5 26.5,15.5 Z"/></g>
    <g><path style="opacity:1" fill="#58e8d5" d="M 11.5,6.5 C 12.6421,8.97173 14.6421,9.97173 17.5,9.5C 19.0481,9.17876 19.7148,8.17876 19.5,6.5C 22.1445,4.75807 25.1445,4.09141 28.5,4.5C 28.9643,8.50247 28.2976,12.1691 26.5,15.5C 26.5,16.1667 26.1667,16.5 25.5,16.5C 23.7324,18.5078 22.0657,20.6744 20.5,23C 12.5908,26.6168 7.59081,24.4502 5.5,16.5C 4.83333,16.5 4.5,16.1667 4.5,15.5C 2.70236,12.1691 2.03569,8.50247 2.5,4.5C 5.85547,4.09141 8.85547,4.75807 11.5,6.5 Z"/></g>
    <g><path style="opacity:1" fill="#17776b" d="M 19.5,6.5 C 19.7148,8.17876 19.0481,9.17876 17.5,9.5C 17.9321,8.29049 18.5987,7.29049 19.5,6.5 Z"/></g>
    <g><path style="opacity:1" fill="#fefffe" d="M 10.5,9.5 C 11.2891,9.78281 11.9558,10.2828 12.5,11C 8.87282,15.2112 8.20615,14.7112 10.5,9.5 Z"/></g>
    <g><path style="opacity:1" fill="#1b9589" d="M 5.5,16.5 C 7.59081,24.4502 12.5908,26.6168 20.5,23C 22.0657,20.6744 23.7324,18.5078 25.5,16.5C 25.8064,19.3854 25.4731,22.0521 24.5,24.5C 22.5,25.1667 21.1667,26.5 20.5,28.5C 9.69763,31.9205 4.69763,27.9205 5.5,16.5 Z"/></g>
    <g><path style="opacity:1" fill="#156d69" d="M 24.5,24.5 C 24.1667,26.8333 22.8333,28.1667 20.5,28.5C 21.1667,26.5 22.5,25.1667 24.5,24.5 Z"/></g>
</svg>