<svg xmlns="http://www.w3.org/2000/svg" version="1.1" width="30px" height="30px" viewBox="0 0 32 32">
    <g><path style="opacity:1" fill="#432910" d="M 25.5,4.5 C 25.1667,4.5 24.8333,4.5 24.5,4.5C 24.5,3.16667 23.8333,2.5 22.5,2.5C 24.2639,-0.125601 25.5972,0.0410661 26.5,3C 26.4301,3.7648 26.0967,4.2648 25.5,4.5 Z"/></g>
    <g><path style="opacity:1" fill="#5a5a5a" d="M 6.5,4.5 C 5.16667,4.5 4.5,5.16667 4.5,6.5C 3.59603,5.79105 3.26269,4.79105 3.5,3.5C 4.79105,3.26269 5.79105,3.59603 6.5,4.5 Z"/></g>
    <g><path style="opacity:1" fill="#83511f" d="M 22.5,2.5 C 23.8333,2.5 24.5,3.16667 24.5,4.5C 22.5648,5.14952 20.5648,5.48285 18.5,5.5C 16.4884,6.01383 14.4884,6.1805 12.5,6C 13.056,5.61742 13.3893,5.11742 13.5,4.5C 16.1709,2.88195 19.1709,2.21528 22.5,2.5 Z"/></g>
    <g><path style="opacity:1" fill="#b3b3b3" d="M 6.5,4.5 C 7.83333,4.83333 9.16667,5.16667 10.5,5.5C 10.5,6.16667 10.5,6.83333 10.5,7.5C 8.97306,7.42702 7.97306,8.09368 7.5,9.5C 6.83333,9.16667 6.16667,8.83333 5.5,8.5C 4.66175,8.15829 4.32842,7.49162 4.5,6.5C 4.5,5.16667 5.16667,4.5 6.5,4.5 Z"/></g>
    <g><path style="opacity:1" fill="#2c1b0a" d="M 24.5,4.5 C 24.8333,4.5 25.1667,4.5 25.5,4.5C 25.5,4.83333 25.5,5.16667 25.5,5.5C 25.1667,5.5 24.8333,5.5 24.5,5.5C 21.9333,6.47502 19.2666,7.14169 16.5,7.5C 17.1667,6.83333 17.8333,6.16667 18.5,5.5C 20.5648,5.48285 22.5648,5.14952 24.5,4.5 Z"/></g>
    <g><path style="opacity:1" fill="#83501d" d="M 13.5,4.5 C 13.3893,5.11742 13.056,5.61742 12.5,6C 14.4884,6.1805 16.4884,6.01383 18.5,5.5C 17.8333,6.16667 17.1667,6.83333 16.5,7.5C 14.4352,7.51715 12.4352,7.85048 10.5,8.5C 10.5,8.16667 10.5,7.83333 10.5,7.5C 10.5,6.83333 10.5,6.16667 10.5,5.5C 11.391,4.89022 12.391,4.55688 13.5,4.5 Z"/></g>
    <g><path style="opacity:1" fill="#434443" d="M 5.5,8.5 C 6.16667,8.83333 6.83333,9.16667 7.5,9.5C 7.5,9.83333 7.5,10.1667 7.5,10.5C 6.83333,10.5 6.16667,10.5 5.5,10.5C 5.5,9.83333 5.5,9.16667 5.5,8.5 Z"/></g>
    <g><path style="opacity:1" fill="#745520" d="M 10.5,7.5 C 10.5,7.83333 10.5,8.16667 10.5,8.5C 11.1098,9.39105 11.4431,10.391 11.5,11.5C 10.391,11.4431 9.39105,11.1098 8.5,10.5C 8.16667,10.5 7.83333,10.5 7.5,10.5C 7.5,10.1667 7.5,9.83333 7.5,9.5C 7.97306,8.09368 8.97306,7.42702 10.5,7.5 Z"/></g>
    <g><path style="opacity:1" fill="#4b3011" d="M 16.5,7.5 C 16.0825,8.22158 15.4158,8.72158 14.5,9C 17.7044,12.0359 20.7044,15.2026 23.5,18.5C 22.5,18.5 21.5,18.5 20.5,18.5C 17.7673,15.7606 14.7673,13.4273 11.5,11.5C 11.4431,10.391 11.1098,9.39105 10.5,8.5C 12.4352,7.85048 14.4352,7.51715 16.5,7.5 Z"/></g>
    <g><path style="opacity:1" fill="#915921" d="M 5.5,10.5 C 6.16667,10.5 6.83333,10.5 7.5,10.5C 7.83333,10.5 8.16667,10.5 8.5,10.5C 8.57298,12.0269 7.90632,13.0269 6.5,13.5C 6.06233,12.4937 5.39567,12.4937 4.5,13.5C 4.55688,12.391 4.89022,11.391 5.5,10.5 Z"/></g>
    <g><path style="opacity:1" fill="#4b2f11" d="M 8.5,10.5 C 9.39105,11.1098 10.391,11.4431 11.5,11.5C 13.4273,14.7673 15.7606,17.7673 18.5,20.5C 18.1583,21.3382 17.4916,21.6716 16.5,21.5C 13.8697,19.3719 11.3697,17.0386 9,14.5C 7.70435,17.5711 6.53768,20.5711 5.5,23.5C 5.5,22.1667 5.5,20.8333 5.5,19.5C 5.51715,17.4352 5.85048,15.4352 6.5,13.5C 7.90632,13.0269 8.57298,12.0269 8.5,10.5 Z"/></g>
    <g><path style="opacity:1" fill="#6c4d16" d="M 11.5,11.5 C 14.7673,13.4273 17.7673,15.7606 20.5,18.5C 20.5,19.1667 20.5,19.8333 20.5,20.5C 19.8333,20.5 19.1667,20.5 18.5,20.5C 15.7606,17.7673 13.4273,14.7673 11.5,11.5 Z"/></g>
    <g><path style="opacity:1" fill="#9a6025" d="M 6.5,13.5 C 5.85048,15.4352 5.51715,17.4352 5.5,19.5C 4.77842,19.9175 4.27842,20.5842 4,21.5C 3.50649,19.8659 3.33982,18.1992 3.5,16.5C 3.26269,15.209 3.59603,14.209 4.5,13.5C 5.39567,12.4937 6.06233,12.4937 6.5,13.5 Z"/></g>
    <g><path style="opacity:1" fill="#4f3510" d="M 20.5,18.5 C 21.5,18.5 22.5,18.5 23.5,18.5C 23.8333,18.5 24.1667,18.5 24.5,18.5C 24.5,20.1667 24.5,21.8333 24.5,23.5C 22.5956,23.2624 21.2623,22.2624 20.5,20.5C 20.5,19.8333 20.5,19.1667 20.5,18.5 Z"/></g>
    <g><path style="opacity:1" fill="#482f10" d="M 18.5,20.5 C 19.1667,20.5 19.8333,20.5 20.5,20.5C 21.2623,22.2624 22.5956,23.2624 24.5,23.5C 22.7354,24.4614 20.7354,24.7947 18.5,24.5C 17.8333,23.5 17.1667,22.5 16.5,21.5C 17.4916,21.6716 18.1583,21.3382 18.5,20.5 Z"/></g>
    <g><path style="opacity:1" fill="#673e17" d="M 3.5,16.5 C 3.33982,18.1992 3.50649,19.8659 4,21.5C 4.27842,20.5842 4.77842,19.9175 5.5,19.5C 5.5,20.8333 5.5,22.1667 5.5,23.5C 3.80407,25.129 2.80407,24.7957 2.5,22.5C 2.20528,20.2646 2.53862,18.2646 3.5,16.5 Z"/></g>
    <g><path style="opacity:1" fill="#301c0a" d="M 25.5,21.5 C 27.1667,22.5 28.5,23.8333 29.5,25.5C 29.6716,26.4916 29.3382,27.1583 28.5,27.5C 27.2055,25.6716 26.2055,23.6716 25.5,21.5 Z"/></g>
    <g><path style="opacity:1" fill="#3e260f" d="M 2.5,22.5 C 2.80407,24.7957 3.80407,25.129 5.5,23.5C 5.5,23.8333 5.5,24.1667 5.5,24.5C 5.5,24.8333 5.5,25.1667 5.5,25.5C 1.01565,27.0266 0.0156477,26.0266 2.5,22.5 Z"/></g>
    <g><path style="opacity:1" fill="#301c0a" d="M 21.5,25.5 C 23.6716,26.2055 25.6716,27.2055 27.5,28.5C 27.1583,29.3382 26.4916,29.6716 25.5,29.5C 23.8333,28.5 22.5,27.1667 21.5,25.5 Z"/></g>
    <g><path style="opacity:1" fill="#665447" d="M 24.5,5.5 C 24.8333,5.5 25.1667,5.5 25.5,5.5C 25.5,10.8333 25.5,16.1667 25.5,21.5C 26.2055,23.6716 27.2055,25.6716 28.5,27.5C 28.5,28.1667 28.1667,28.5 27.5,28.5C 25.6716,27.2055 23.6716,26.2055 21.5,25.5C 16.1667,25.5 10.8333,25.5 5.5,25.5C 5.5,25.1667 5.5,24.8333 5.5,24.5C 9.83333,24.5 14.1667,24.5 18.5,24.5C 20.7354,24.7947 22.7354,24.4614 24.5,23.5C 24.5,21.8333 24.5,20.1667 24.5,18.5C 24.5,14.1667 24.5,9.83333 24.5,5.5 Z"/></g>
    <g><path style="opacity:1" fill="#1e1205" d="M 29.5,25.5 C 30.9177,27.9876 30.0844,29.6542 27,30.5C 26.2352,30.4301 25.7352,30.0967 25.5,29.5C 26.4916,29.6716 27.1583,29.3382 27.5,28.5C 28.1667,28.5 28.5,28.1667 28.5,27.5C 29.3382,27.1583 29.6716,26.4916 29.5,25.5 Z"/></g>
</svg>