<svg xmlns="http://www.w3.org/2000/svg" version="1.1" width="30px" height="30px" viewBox="0 0 32 32">
    <g><path style="opacity:1" fill="#8584a3" d="M 10.5,4.5 C 11.4849,8.63441 11.8182,12.9677 11.5,17.5C 10.7321,18.2625 10.2321,19.2625 10,20.5C 9.51722,19.552 9.35055,18.552 9.5,17.5C 10.4124,16.2618 10.5791,14.9285 10,13.5C 5.82883,14.6155 5.66216,14.2821 9.5,12.5C 10.4287,11.3112 10.762,9.97782 10.5,8.5C 3.83333,8.16667 3.83333,7.83333 10.5,7.5C 10.5,6.5 10.5,5.5 10.5,4.5 Z"/></g>
    <g><path style="opacity:1" fill="#8585a4" d="M 20.5,4.5 C 20.5,5.5 20.5,6.5 20.5,7.5C 22.4147,7.21552 24.0813,7.54885 25.5,8.5C 23.8333,8.5 22.1667,8.5 20.5,8.5C 20.2411,11.4797 21.5744,13.313 24.5,14C 23.2161,14.6838 22.0495,14.5171 21,13.5C 20.4209,14.9285 20.5876,16.2618 21.5,17.5C 21.5,18.5 21.5,19.5 21.5,20.5C 20.8333,19.5 20.1667,18.5 19.5,17.5C 19.1818,12.9677 19.5151,8.63441 20.5,4.5 Z"/></g>
    <g><path style="opacity:1" fill="#3c3c3c" d="M 7.5,4.5 C 12.8333,3.16667 18.1667,3.16667 23.5,4.5C 22.5,4.5 21.5,4.5 20.5,4.5C 19.5151,8.63441 19.1818,12.9677 19.5,17.5C 19.5,19.5 19.5,21.5 19.5,23.5C 18.6724,17.6807 18.1724,11.6807 18,5.5C 16.3333,4.16667 14.6667,4.16667 13,5.5C 12.8276,11.6807 12.3276,17.6807 11.5,23.5C 11.5,21.5 11.5,19.5 11.5,17.5C 11.8182,12.9677 11.4849,8.63441 10.5,4.5C 9.5,4.5 8.5,4.5 7.5,4.5 Z"/></g>
    <g><path style="opacity:1" fill="#515151" d="M 7.5,4.5 C 5.14016,5.86505 3.47349,7.86505 2.5,10.5C 2.5,12.8333 2.5,15.1667 2.5,17.5C 1.02134,13.6176 1.35468,9.78423 3.5,6C 4.74499,5.20858 6.07833,4.70858 7.5,4.5 Z"/></g>
    <g><path style="opacity:1" fill="#8a8a8c" d="M 7.5,4.5 C 8.5,4.5 9.5,4.5 10.5,4.5C 10.5,5.5 10.5,6.5 10.5,7.5C 3.83333,7.83333 3.83333,8.16667 10.5,8.5C 10.762,9.97782 10.4287,11.3112 9.5,12.5C 5.66216,14.2821 5.82883,14.6155 10,13.5C 10.5791,14.9285 10.4124,16.2618 9.5,17.5C 8.2618,18.4124 6.92847,18.5791 5.5,18C 5.83333,17.6667 6.16667,17.3333 6.5,17C 5.5,16.6667 4.5,16.3333 3.5,16C 3.83333,14.3333 4.16667,12.6667 4.5,11C 3.90558,10.5357 3.23891,10.369 2.5,10.5C 3.47349,7.86505 5.14016,5.86505 7.5,4.5 Z"/></g>
    <g><path style="opacity:1" fill="#8a8a8d" d="M 25.5,8.5 C 25.9175,9.22158 26.5842,9.72158 27.5,10C 27.2549,11.9114 27.2549,13.9114 27.5,16C 25.1089,16.1867 23.9423,17.02 24,18.5C 23.0979,18.2568 22.2646,17.9234 21.5,17.5C 20.5876,16.2618 20.4209,14.9285 21,13.5C 22.0495,14.5171 23.2161,14.6838 24.5,14C 21.5744,13.313 20.2411,11.4797 20.5,8.5C 22.1667,8.5 23.8333,8.5 25.5,8.5 Z"/></g>
    <g><path style="opacity:1" fill="#6d6d6f" d="M 20.5,4.5 C 21.5,4.5 22.5,4.5 23.5,4.5C 26.1483,4.73846 27.9817,6.07179 29,8.5C 29.8045,11.6965 29.6378,14.6965 28.5,17.5C 27.5255,18.635 26.3588,19.635 25,20.5C 24.6667,20.1667 24.3333,19.8333 24,19.5C 23.0814,22.4016 22.2481,22.7349 21.5,20.5C 21.5,19.5 21.5,18.5 21.5,17.5C 22.2646,17.9234 23.0979,18.2568 24,18.5C 23.9423,17.02 25.1089,16.1867 27.5,16C 27.2549,13.9114 27.2549,11.9114 27.5,10C 26.5842,9.72158 25.9175,9.22158 25.5,8.5C 24.0813,7.54885 22.4147,7.21552 20.5,7.5C 20.5,6.5 20.5,5.5 20.5,4.5 Z"/></g>
    <g><path style="opacity:1" fill="#646465" d="M 2.5,10.5 C 3.23891,10.369 3.90558,10.5357 4.5,11C 4.16667,12.6667 3.83333,14.3333 3.5,16C 4.5,16.3333 5.5,16.6667 6.5,17C 6.16667,17.3333 5.83333,17.6667 5.5,18C 6.92847,18.5791 8.2618,18.4124 9.5,17.5C 9.35055,18.552 9.51722,19.552 10,20.5C 10.2321,19.2625 10.7321,18.2625 11.5,17.5C 11.5,19.5 11.5,21.5 11.5,23.5C 11.0349,26.4734 9.3682,27.6401 6.5,27C 4.46716,24.1041 3.13382,20.9374 2.5,17.5C 2.5,15.1667 2.5,12.8333 2.5,10.5 Z"/></g>
    <g><path style="opacity:1" fill="#5e5d5f" d="M 19.5,17.5 C 20.1667,18.5 20.8333,19.5 21.5,20.5C 22.2481,22.7349 23.0814,22.4016 24,19.5C 24.3333,19.8333 24.6667,20.1667 25,20.5C 26.3588,19.635 27.5255,18.635 28.5,17.5C 27.8662,20.9374 26.5328,24.1041 24.5,27C 21.6318,27.6401 19.9651,26.4734 19.5,23.5C 19.5,21.5 19.5,19.5 19.5,17.5 Z"/></g>
</svg>