<svg xmlns="http://www.w3.org/2000/svg" version="1.1" width="30px" height="30px" viewBox="0 0 32 32">
    <g><path style="opacity:1" fill="#544a3d" d="M 28.5,17.5 C 28.8128,13.9581 28.4794,10.6248 27.5,7.5C 28.5624,6.42463 28.5624,5.42463 27.5,4.5C 25.8144,5.85689 24.1477,7.19022 22.5,8.5C 22.1667,8.5 21.8333,8.5 21.5,8.5C 22.9599,6.53717 24.6266,4.70383 26.5,3C 27.4491,2.38277 28.2825,2.54943 29,3.5C 29.8151,8.35219 29.6484,13.0189 28.5,17.5 Z"/></g>
    <g><path style="opacity:1" fill="#6f5320" d="M 27.5,7.5 C 26.5,9.16667 25.1667,10.5 23.5,11.5C 21.5,11.5 20.5,12.5 20.5,14.5C 19.448,14.6495 18.448,14.4828 17.5,14C 19.3734,12.2962 21.0401,10.4628 22.5,8.5C 24.1477,7.19022 25.8144,5.85689 27.5,4.5C 28.5624,5.42463 28.5624,6.42463 27.5,7.5 Z"/></g>
    <g><path style="opacity:1" fill="#30240e" d="M 23.5,11.5 C 22.8333,12.8333 21.8333,13.8333 20.5,14.5C 20.5,12.5 21.5,11.5 23.5,11.5 Z"/></g>
    <g><path style="opacity:1" fill="#483920" d="M 21.5,8.5 C 21.8333,8.5 22.1667,8.5 22.5,8.5C 21.0401,10.4628 19.3734,12.2962 17.5,14C 18.448,14.4828 19.448,14.6495 20.5,14.5C 19.1667,16.5 17.5,18.1667 15.5,19.5C 15.5106,17.9826 16.1772,16.8159 17.5,16C 17.1667,15.8333 16.8333,15.6667 16.5,15.5C 14.4807,17.1897 12.4807,18.8564 10.5,20.5C 13.4357,15.8947 17.1024,11.8947 21.5,8.5 Z"/></g>
    <g><path style="opacity:1" fill="#6a5022" d="M 15.5,19.5 C 15.5,20.1667 15.5,20.8333 15.5,21.5C 13.6203,21.2291 12.287,21.8958 11.5,23.5C 9.80407,25.129 8.80407,24.7957 8.5,22.5C 8.83333,21.5 9.5,20.8333 10.5,20.5C 12.4807,18.8564 14.4807,17.1897 16.5,15.5C 16.8333,15.6667 17.1667,15.8333 17.5,16C 16.1772,16.8159 15.5106,17.9826 15.5,19.5 Z"/></g>
    <g><path style="opacity:1" fill="#6e6e6e" d="M 28.5,17.5 C 28.6716,18.4916 28.3382,19.1583 27.5,19.5C 27.3284,18.5084 27.6618,17.8417 28.5,17.5 Z"/></g>
    <g><path style="opacity:1" fill="#4e4e4e" d="M 27.5,19.5 C 27.6716,20.4916 27.3382,21.1583 26.5,21.5C 26.3284,20.5084 26.6618,19.8417 27.5,19.5 Z"/></g>
    <g><path style="opacity:1" fill="#878787" d="M 15.5,21.5 C 16.5983,22.6009 16.765,23.9343 16,25.5C 14.3845,26.8009 12.8845,26.8009 11.5,25.5C 11.5,24.8333 11.5,24.1667 11.5,23.5C 12.287,21.8958 13.6203,21.2291 15.5,21.5 Z"/></g>
    <g><path style="opacity:1" fill="#403015" d="M 8.5,22.5 C 8.80407,24.7957 9.80407,25.129 11.5,23.5C 11.5,24.1667 11.5,24.8333 11.5,25.5C 9.21076,27.0059 6.87743,28.1726 4.5,29C 4.13118,26.1225 5.46451,23.9558 8.5,22.5 Z"/></g>
    <g><path style="opacity:1" fill="#636363" d="M 26.5,21.5 C 26.6716,22.4916 26.3382,23.1583 25.5,23.5C 25.3284,22.5084 25.6618,21.8417 26.5,21.5 Z"/></g>
    <g><path style="opacity:1" fill="#636463" d="M 25.5,23.5 C 24.8333,24.1667 24.8333,24.1667 25.5,23.5 Z"/></g>
    <g><path style="opacity:1" fill="#bcbcbc" d="M 24.5,24.5 C 24.6716,25.4916 24.3382,26.1583 23.5,26.5C 23.3284,25.5084 23.6618,24.8417 24.5,24.5 Z"/></g>
    <g><path style="opacity:1" fill="#c9c9c9" d="M 23.5,26.5 C 22.9232,27.7733 22.2565,27.7733 21.5,26.5C 21.9698,25.537 22.6365,25.537 23.5,26.5 Z"/></g>
</svg>