<svg xmlns="http://www.w3.org/2000/svg" version="1.1" width="30px" height="30px" viewBox="0 0 32 32">
    <g><path style="opacity:1" fill="#49d4c2" d="M 10.5,6.5 C 13.4475,6.22288 16.2809,6.55621 19,7.5C 19.6667,8.5 19.6667,9.5 19,10.5C 17.1239,11.6087 15.2905,12.6087 13.5,13.5C 11.9826,13.5106 10.8159,14.1772 10,15.5C 10.0302,18.3615 9.19686,20.6948 7.5,22.5C 6.88258,22.3893 6.38258,22.056 6,21.5C 5.83333,19.6667 5.66667,17.8333 5.5,16C 5.29989,13.1345 5.96656,10.6345 7.5,8.5C 9.02694,8.57298 10.0269,7.90632 10.5,6.5 Z"/></g>
    <g><path style="opacity:1" fill="#17776b" d="M 10.5,6.5 C 10.0269,7.90632 9.02694,8.57298 7.5,8.5C 7.97306,7.09368 8.97306,6.42702 10.5,6.5 Z"/></g>
    <g><path style="opacity:1" fill="#1b978b" d="M 10.5,6.5 C 23.0215,3.52321 27.8548,8.52321 25,21.5C 24.6174,22.056 24.1174,22.3893 23.5,22.5C 22.0161,19.8796 20.6828,17.0463 19.5,14C 17.5273,13.5045 15.5273,13.3379 13.5,13.5C 15.2905,12.6087 17.1239,11.6087 19,10.5C 19.6667,9.5 19.6667,8.5 19,7.5C 16.2809,6.55621 13.4475,6.22288 10.5,6.5 Z"/></g>
    <g><path style="opacity:1" fill="#fefffe" d="M 10.5,8.5 C 12.9752,8.7467 12.9752,9.41336 10.5,10.5C 9.53705,10.0302 9.53705,9.3635 10.5,8.5 Z"/></g>
    <g><path style="opacity:1" fill="#082823" d="M 13.5,13.5 C 15.5273,13.3379 17.5273,13.5045 19.5,14C 20.6828,17.0463 22.0161,19.8796 23.5,22.5C 18.1667,21.1667 12.8333,21.1667 7.5,22.5C 9.19686,20.6948 10.0302,18.3615 10,15.5C 10.8159,14.1772 11.9826,13.5106 13.5,13.5 Z"/></g>
</svg>