<svg xmlns="http://www.w3.org/2000/svg" version="1.1" width="30px" height="30px" viewBox="0 0 32 32">
    <g><path style="opacity:1" fill="#208e7b" d="M 18.5,3.5 C 18.2178,4.77765 17.5511,5.77765 16.5,6.5C 10.8056,5.25651 10.4723,3.92318 15.5,2.5C 16.7261,2.51954 17.7261,2.85287 18.5,3.5 Z"/></g>
    <g><path style="opacity:1" fill="#229a85" d="M 18.5,3.5 C 20.4113,4.07501 22.078,5.07501 23.5,6.5C 23.5,6.83333 23.5,7.16667 23.5,7.5C 22.8902,8.39105 22.5569,9.39105 22.5,10.5C 21.8333,10.1667 21.1667,9.83333 20.5,9.5C 19.1283,8.48837 17.795,7.48837 16.5,6.5C 17.5511,5.77765 18.2178,4.77765 18.5,3.5 Z"/></g>
    <g><path style="opacity:1" fill="#5a431a" d="M 26.5,9.5 C 26.1667,9.5 25.8333,9.5 25.5,9.5C 25.1667,8.5 24.5,7.83333 23.5,7.5C 23.5,7.16667 23.5,6.83333 23.5,6.5C 26.8333,5.16667 27.8333,6.16667 26.5,9.5 Z"/></g>
    <g><path style="opacity:1" fill="#2bc8ad" d="M 23.5,7.5 C 24.5,7.83333 25.1667,8.5 25.5,9.5C 24.5,9.83333 23.8333,10.5 23.5,11.5C 22.8333,11.5 22.5,11.1667 22.5,10.5C 22.5569,9.39105 22.8902,8.39105 23.5,7.5 Z"/></g>
    <g><path style="opacity:1" fill="#7c5d23" d="M 19.5,11.5 C 20.2389,11.369 20.9056,11.5357 21.5,12C 20.7476,12.6708 20.4142,13.5041 20.5,14.5C 19.1667,14.5 18.5,13.8333 18.5,12.5C 18.5,11.8333 18.8333,11.5 19.5,11.5 Z"/></g>
    <g><path style="opacity:1" fill="#3d2e12" d="M 20.5,9.5 C 21.1667,9.83333 21.8333,10.1667 22.5,10.5C 22.5,11.1667 22.8333,11.5 23.5,11.5C 23.5,11.8333 23.5,12.1667 23.5,12.5C 22.5,13.1667 21.5,13.8333 20.5,14.5C 20.4142,13.5041 20.7476,12.6708 21.5,12C 20.9056,11.5357 20.2389,11.369 19.5,11.5C 19.8333,10.8333 20.1667,10.1667 20.5,9.5 Z"/></g>
    <g><path style="opacity:1" fill="#1b7867" d="M 25.5,9.5 C 25.8333,9.5 26.1667,9.5 26.5,9.5C 27.5075,11.268 26.8408,12.6013 24.5,13.5C 23.8933,13.3764 23.56,13.0431 23.5,12.5C 23.5,12.1667 23.5,11.8333 23.5,11.5C 23.8333,10.5 24.5,9.83333 25.5,9.5 Z"/></g>
    <g><path style="opacity:1" fill="#4d3a17" d="M 18.5,12.5 C 18.5,13.8333 19.1667,14.5 20.5,14.5C 19.1667,16.5 17.5,18.1667 15.5,19.5C 15.5106,17.9826 16.1772,16.8159 17.5,16C 16.9056,15.5357 16.2389,15.369 15.5,15.5C 16.1667,14.1667 17.1667,13.1667 18.5,12.5 Z"/></g>
    <g><path style="opacity:1" fill="#6b501f" d="M 15.5,15.5 C 16.2389,15.369 16.9056,15.5357 17.5,16C 16.1772,16.8159 15.5106,17.9826 15.5,19.5C 15.1667,20.5 14.5,21.1667 13.5,21.5C 12.8333,21.5 12.1667,21.5 11.5,21.5C 12.925,20.078 13.925,18.4113 14.5,16.5C 14.5,15.8333 14.8333,15.5 15.5,15.5 Z"/></g>
    <g><path style="opacity:1" fill="#5c451a" d="M 14.5,16.5 C 13.925,18.4113 12.925,20.078 11.5,21.5C 10.8333,21.5 10.1667,21.5 9.5,21.5C 10.8333,19.5 12.5,17.8333 14.5,16.5 Z"/></g>
    <g><path style="opacity:1" fill="#4c3916" d="M 8.5,22.5 C 8.5,21.8333 8.83333,21.5 9.5,21.5C 10.1667,21.5 10.8333,21.5 11.5,21.5C 12.1667,21.5 12.8333,21.5 13.5,21.5C 12.5,23.1667 11.1667,24.5 9.5,25.5C 9.73731,24.209 9.40397,23.209 8.5,22.5 Z"/></g>
    <g><path style="opacity:1" fill="#634a1c" d="M 8.5,22.5 C 8.26714,24.0618 7.60048,25.3951 6.5,26.5C 5.83333,27.8333 5.16667,27.8333 4.5,26.5C 5.5,24.8333 6.83333,23.5 8.5,22.5 Z"/></g>
    <g><path style="opacity:1" fill="#6c511f" d="M 8.5,22.5 C 9.40397,23.209 9.73731,24.209 9.5,25.5C 9.5,26.1667 9.16667,26.5 8.5,26.5C 7.83333,26.5 7.16667,26.5 6.5,26.5C 7.60048,25.3951 8.26714,24.0618 8.5,22.5 Z"/></g>
    <g><path style="opacity:1" fill="#3f2f13" d="M 4.5,26.5 C 5.16667,27.8333 5.83333,27.8333 6.5,26.5C 7.16667,26.5 7.83333,26.5 8.5,26.5C 7.16054,29.7015 5.49388,30.0348 3.5,27.5C 3.62358,26.8933 3.95691,26.56 4.5,26.5 Z"/></g>
</svg>