<svg xmlns="http://www.w3.org/2000/svg" version="1.1" width="30px" height="30px" viewBox="0 0 32 32">
    <g><path style="opacity:1" fill="#a9f8e7" d="M 7.5,4.5 C 11.8333,4.5 16.1667,4.5 20.5,4.5C 18.0677,5.95819 15.4011,7.12486 12.5,8C 11.0016,10.6637 9.00158,12.8304 6.5,14.5C 6.5,11.5 6.5,8.5 6.5,5.5C 6.5,4.83333 6.83333,4.5 7.5,4.5 Z"/></g>
    <g><path style="opacity:1" fill="#49ecd8" d="M 20.5,4.5 C 21.1174,4.61071 21.6174,4.94404 22,5.5C 22.6667,9.5 22.6667,13.5 22,17.5C 21.5776,19.4257 20.4109,20.4257 18.5,20.5C 18.5,18.8333 18.5,17.1667 18.5,15.5C 19.4859,11.6579 17.8192,10.1579 13.5,11C 11.8183,13.6901 10.3183,16.5234 9,19.5C 8.32924,20.2524 7.4959,20.5858 6.5,20.5C 6.5,18.5 6.5,16.5 6.5,14.5C 9.00158,12.8304 11.0016,10.6637 12.5,8C 15.4011,7.12486 18.0677,5.95819 20.5,4.5 Z"/></g>
    <g><path style="opacity:1" fill="#082722" d="M 24.5,5.5 C 25.4916,12.6476 25.825,19.9809 25.5,27.5C 22.8333,27.5 20.1667,27.5 17.5,27.5C 17.5,22.8333 17.5,18.1667 17.5,13.5C 18.3382,13.8417 18.6716,14.5084 18.5,15.5C 18.5,17.1667 18.5,18.8333 18.5,20.5C 18.5,22.5 18.5,24.5 18.5,26.5C 20.5,26.5 22.5,26.5 24.5,26.5C 24.5,19.5 24.5,12.5 24.5,5.5 Z"/></g>
    <g><path style="opacity:1" fill="#1ca59a" d="M 7.5,4.5 C 12.6503,3.34926 17.9836,3.18259 23.5,4C 24.056,4.38258 24.3893,4.88258 24.5,5.5C 24.5,12.5 24.5,19.5 24.5,26.5C 22.5,26.5 20.5,26.5 18.5,26.5C 18.5,24.5 18.5,22.5 18.5,20.5C 20.4109,20.4257 21.5776,19.4257 22,17.5C 22.6667,13.5 22.6667,9.5 22,5.5C 21.6174,4.94404 21.1174,4.61071 20.5,4.5C 16.1667,4.5 11.8333,4.5 7.5,4.5 Z"/></g>
    <g><path style="opacity:1" fill="#1db3a8" d="M 18.5,15.5 C 18.6716,14.5084 18.3382,13.8417 17.5,13.5C 16.1667,13.5 14.8333,13.5 13.5,13.5C 12.5151,17.6344 12.1818,21.9677 12.5,26.5C 10.5,26.5 8.5,26.5 6.5,26.5C 6.5,24.5 6.5,22.5 6.5,20.5C 7.4959,20.5858 8.32924,20.2524 9,19.5C 10.3183,16.5234 11.8183,13.6901 13.5,11C 17.8192,10.1579 19.4859,11.6579 18.5,15.5 Z"/></g>
    <g><path style="opacity:1" fill="#092c26" d="M 6.5,5.5 C 6.5,8.5 6.5,11.5 6.5,14.5C 6.5,16.5 6.5,18.5 6.5,20.5C 6.5,22.5 6.5,24.5 6.5,26.5C 8.5,26.5 10.5,26.5 12.5,26.5C 12.1818,21.9677 12.5151,17.6344 13.5,13.5C 13.5,18.1667 13.5,22.8333 13.5,27.5C 10.8333,27.5 8.16667,27.5 5.5,27.5C 5.17503,19.9809 5.50837,12.6476 6.5,5.5 Z"/></g>
</svg>