<svg xmlns="http://www.w3.org/2000/svg" version="1.1" width="32px" height="32px" viewBox="-2 -2 36 36">
    <g><path style="opacity:1" fill="#828b99" d="M 18.5,-0.5 C 19.1667,-0.5 19.8333,-0.5 20.5,-0.5C 21.5,0.833333 22.5,2.16667 23.5,3.5C 23.9528,4.45837 24.6195,5.2917 25.5,6C 22.8333,8.66667 20.1667,11.3333 17.5,14C 15.1226,13.1726 12.7892,12.0059 10.5,10.5C 9.47498,10.1034 9.30831,9.43677 10,8.5C 13.0379,5.63064 15.8712,2.63064 18.5,-0.5 Z"/></g>
    <g><path style="opacity:1" fill="#3f454f" d="M 18.5,3.5 C 19.6266,4.12167 20.6266,4.95501 21.5,6C 19.6667,7.83333 17.8333,9.66667 16,11.5C 15.1667,10.6667 14.3333,9.83333 13.5,9C 15.3734,7.29617 17.0401,5.46283 18.5,3.5 Z"/></g>
    <g><path style="opacity:1" fill="#373b45" d="M 31.5,10.5 C 31.5,11.1667 31.5,11.8333 31.5,12.5C 28.1866,15.4778 24.8533,18.4778 21.5,21.5C 19.736,19.7224 17.736,18.3891 15.5,17.5C 15.573,15.9731 14.9063,14.9731 13.5,14.5C 12.5,13.1667 11.5,11.8333 10.5,10.5C 12.7892,12.0059 15.1226,13.1726 17.5,14C 20.1667,11.3333 22.8333,8.66667 25.5,6C 24.6195,5.2917 23.9528,4.45837 23.5,3.5C 27.7077,1.87584 29.2077,3.20918 28,7.5C 29.0391,8.7101 30.2058,9.7101 31.5,10.5 Z"/></g>
    <g><path style="opacity:1" fill="#7178a8" d="M 13.5,14.5 C 14.9063,14.9731 15.573,15.9731 15.5,17.5C 12.5,21.1667 9.16667,24.5 5.5,27.5C 4.83333,27.1667 4.16667,26.8333 3.5,26.5C 3.5,26.1667 3.5,25.8333 3.5,25.5C 6.83333,21.8333 10.1667,18.1667 13.5,14.5 Z"/></g>
    <g><path style="opacity:1" fill="#5e6371" d="M 3.5,25.5 C 3.5,25.8333 3.5,26.1667 3.5,26.5C 2.24581,30.31 1.24581,30.31 0.5,26.5C 1.20895,25.596 2.20895,25.2627 3.5,25.5 Z"/></g>
    <g><path style="opacity:1" fill="#323640" d="M -0.5,26.5 C -0.166667,26.5 0.166667,26.5 0.5,26.5C 1.24581,30.31 2.24581,30.31 3.5,26.5C 4.16667,26.8333 4.83333,27.1667 5.5,27.5C 5.56745,28.9587 5.23411,30.2921 4.5,31.5C 3.16667,31.5 1.83333,31.5 0.5,31.5C 0.5,30.8333 0.166667,30.5 -0.5,30.5C -0.5,29.1667 -0.5,27.8333 -0.5,26.5 Z"/></g>
</svg>