<svg xmlns="http://www.w3.org/2000/svg" version="1.1" width="30px" height="30px" viewBox="0 0 32 32">
    <g><path style="opacity:1" fill="#1d7f6e" d="M 22.5,6.5 C 19.9407,6.19845 17.6074,6.53178 15.5,7.5C 13.8008,7.66018 12.1341,7.49351 10.5,7C 9.16667,6.33333 9.16667,5.66667 10.5,5C 14.8064,4.08761 18.8064,4.58761 22.5,6.5 Z"/></g>
    <g><path style="opacity:1" fill="#229b86" d="M 22.5,6.5 C 22.5,6.83333 22.5,7.16667 22.5,7.5C 22.1667,8.16667 21.8333,8.83333 21.5,9.5C 21.1667,9.5 20.8333,9.5 20.5,9.5C 18.597,9.20414 16.9303,8.53747 15.5,7.5C 17.6074,6.53178 19.9407,6.19845 22.5,6.5 Z"/></g>
    <g><path style="opacity:1" fill="#4e3e1b" d="M 26.5,10.5 C 26.1667,10.5 25.8333,10.5 25.5,10.5C 25.5,8.5 24.5,7.5 22.5,7.5C 22.5,7.16667 22.5,6.83333 22.5,6.5C 26.8333,4.83333 28.1667,6.16667 26.5,10.5 Z"/></g>
    <g><path style="opacity:1" fill="#27b9a0" d="M 22.5,7.5 C 24.5,7.5 25.5,8.5 25.5,10.5C 24.8333,11.1667 24.1667,11.8333 23.5,12.5C 22.8333,11.5 22.1667,10.5 21.5,9.5C 21.8333,8.83333 22.1667,8.16667 22.5,7.5 Z"/></g>
    <g><path style="opacity:1" fill="#4b3816" d="M 20.5,9.5 C 20.8333,9.5 21.1667,9.5 21.5,9.5C 22.1667,10.5 22.8333,11.5 23.5,12.5C 22.5,13.1667 21.5,13.8333 20.5,14.5C 20.4142,13.5041 20.7476,12.6708 21.5,12C 20.9056,11.5357 20.2389,11.369 19.5,11.5C 19.8333,10.8333 20.1667,10.1667 20.5,9.5 Z"/></g>
    <g><path style="opacity:1" fill="#1a7262" d="M 25.5,10.5 C 25.8333,10.5 26.1667,10.5 26.5,10.5C 27.404,11.209 27.7373,12.209 27.5,13.5C 26.5233,16.2869 26.19,19.2869 26.5,22.5C 25.5113,19.2737 24.5113,15.9404 23.5,12.5C 24.1667,11.8333 24.8333,11.1667 25.5,10.5 Z"/></g>
    <g><path style="opacity:1" fill="#58421a" d="M 19.5,11.5 C 20.2389,11.369 20.9056,11.5357 21.5,12C 20.7476,12.6708 20.4142,13.5041 20.5,14.5C 19.1667,16.5 17.5,18.1667 15.5,19.5C 15.5106,17.9826 16.1772,16.8159 17.5,16C 16.9056,15.5357 16.2389,15.369 15.5,15.5C 16.5,13.8333 17.8333,12.5 19.5,11.5 Z"/></g>
    <g><path style="opacity:1" fill="#20907d" d="M 27.5,13.5 C 28.6378,16.3035 28.8045,19.3035 28,22.5C 27.31,23.7383 26.81,23.7383 26.5,22.5C 26.19,19.2869 26.5233,16.2869 27.5,13.5 Z"/></g>
    <g><path style="opacity:1" fill="#654b1d" d="M 15.5,15.5 C 16.2389,15.369 16.9056,15.5357 17.5,16C 16.1772,16.8159 15.5106,17.9826 15.5,19.5C 15.1667,20.5 14.5,21.1667 13.5,21.5C 12.1667,21.5 10.8333,21.5 9.5,21.5C 11.1667,19.1667 13.1667,17.1667 15.5,15.5 Z"/></g>
    <g><path style="opacity:1" fill="#4c3916" d="M 8.5,22.5 C 8.5,21.8333 8.83333,21.5 9.5,21.5C 10.8333,21.5 12.1667,21.5 13.5,21.5C 12.5,23.1667 11.1667,24.5 9.5,25.5C 9.73731,24.209 9.40397,23.209 8.5,22.5 Z"/></g>
    <g><path style="opacity:1" fill="#664c1d" d="M 8.5,22.5 C 9.40397,23.209 9.73731,24.209 9.5,25.5C 9.5,26.1667 9.16667,26.5 8.5,26.5C 6.96497,27.3543 5.63163,27.3543 4.5,26.5C 5.5,24.8333 6.83333,23.5 8.5,22.5 Z"/></g>
    <g><path style="opacity:1" fill="#3f2f13" d="M 4.5,26.5 C 5.63163,27.3543 6.96497,27.3543 8.5,26.5C 7.16054,29.7015 5.49388,30.0348 3.5,27.5C 3.62358,26.8933 3.95691,26.56 4.5,26.5 Z"/></g>
</svg>