<svg xmlns="http://www.w3.org/2000/svg" version="1.1" width="30px" height="30px" viewBox="0 0 32 32">
    <g><path style="opacity:1" fill="#1b7b6a" d="M 27.5,4.5 C 23.0621,4.93328 20.0621,7.26661 18.5,11.5C 17.7109,11.2172 17.0442,10.7172 16.5,10C 18.5,8 20.5,6 22.5,4C 24.3869,3.22039 26.0536,3.38705 27.5,4.5 Z"/></g>
    <g><path style="opacity:1" fill="#25aa93" d="M 27.5,4.5 C 29.4411,6.01064 29.9411,8.01064 29,10.5C 27,12.5 25,14.5 23,16.5C 22.2828,15.9558 21.7828,15.2891 21.5,14.5C 20.8333,13.1667 19.8333,12.1667 18.5,11.5C 20.0621,7.26661 23.0621,4.93328 27.5,4.5 Z"/></g>
    <g><path style="opacity:1" fill="#5b441a" d="M 18.5,11.5 C 19.8333,12.1667 20.8333,13.1667 21.5,14.5C 15.4651,19.6821 10.4651,24.8488 6.5,30C 4.36194,28.5784 3.19528,26.745 3,24.5C 4,23.1667 5,23.1667 6,24.5C 10.3702,20.2978 14.5368,15.9645 18.5,11.5 Z"/></g>
</svg>