<svg xmlns="http://www.w3.org/2000/svg" version="1.1" width="30px" height="30px" viewBox="0 0 32 32">
    <g><path style="opacity:1" fill="#0c362f" d="M 27.5,0.5 C 27.5,0.166667 27.5,-0.166667 27.5,-0.5C 28.8333,-0.5 30.1667,-0.5 31.5,-0.5C 31.5,0.833333 31.5,2.16667 31.5,3.5C 31.1667,3.5 30.8333,3.5 30.5,3.5C 30.5,2.5 30.5,1.5 30.5,0.5C 29.5,0.5 28.5,0.5 27.5,0.5 Z"/></g>
    <g><path style="opacity:1" fill="#6abbad" d="M 27.5,0.5 C 28.5,0.5 29.5,0.5 30.5,0.5C 30.5,1.5 30.5,2.5 30.5,3.5C 29.5,5.16667 28.1667,6.5 26.5,7.5C 25.0013,5.19779 23.668,5.53112 22.5,8.5C 20.2843,9.20261 18.451,10.5359 17,12.5C 16.6012,12.2716 16.4346,11.9382 16.5,11.5C 19.8333,7.5 23.5,3.83333 27.5,0.5 Z"/></g>
    <g><path style="opacity:1" fill="#25a891" d="M 26.5,7.5 C 23.5,11.1667 20.1667,14.5 16.5,17.5C 16.3893,16.8826 16.056,16.3826 15.5,16C 18.0386,13.6303 20.3719,11.1303 22.5,8.5C 23.668,5.53112 25.0013,5.19779 26.5,7.5 Z"/></g>
    <g><path style="opacity:1" fill="#115045" d="M 11.5,16.5 C 11.8333,17.1667 12.1667,17.8333 12.5,18.5C 10.629,18.1412 9.12901,17.1412 8,15.5C 8.15035,17.5056 8.65035,19.5056 9.5,21.5C 8.83333,21.1667 8.16667,20.8333 7.5,20.5C 2.80467,11.146 4.138,9.81265 11.5,16.5 Z"/></g>
    <g><path style="opacity:1" fill="#27b39b" d="M 22.5,8.5 C 20.3719,11.1303 18.0386,13.6303 15.5,16C 16.056,16.3826 16.3893,16.8826 16.5,17.5C 16.1667,18.5 15.5,19.1667 14.5,19.5C 13.8333,19.1667 13.1667,18.8333 12.5,18.5C 12.1667,17.8333 11.8333,17.1667 11.5,16.5C 12.8333,14.5 14.5,12.8333 16.5,11.5C 16.4346,11.9382 16.6012,12.2716 17,12.5C 18.451,10.5359 20.2843,9.20261 22.5,8.5 Z"/></g>
    <g><path style="opacity:1" fill="#176e5e" d="M 12.5,18.5 C 12.8588,20.371 13.8588,21.871 15.5,23C 13.4944,22.8497 11.4944,22.3497 9.5,21.5C 8.65035,19.5056 8.15035,17.5056 8,15.5C 9.12901,17.1412 10.629,18.1412 12.5,18.5 Z"/></g>
    <g><path style="opacity:1" fill="#0c3029" d="M 12.5,18.5 C 13.1667,18.8333 13.8333,19.1667 14.5,19.5C 16.1436,21.4807 17.8103,23.4807 19.5,25.5C 18.8333,25.8333 18.1667,26.1667 17.5,26.5C 15.0038,25.1115 12.3372,24.1115 9.5,23.5C 9.5,22.8333 9.5,22.1667 9.5,21.5C 11.4944,22.3497 13.4944,22.8497 15.5,23C 13.8588,21.871 12.8588,20.371 12.5,18.5 Z"/></g>
    <g><path style="opacity:1" fill="#5f471b" d="M 7.5,20.5 C 8.16667,20.8333 8.83333,21.1667 9.5,21.5C 9.5,22.1667 9.5,22.8333 9.5,23.5C 8.5,25.1667 7.16667,26.5 5.5,27.5C 4.5,27.1667 3.83333,26.5 3.5,25.5C 4.83333,23.8333 6.16667,22.1667 7.5,20.5 Z"/></g>
    <g><path style="opacity:1" fill="#13584c" d="M 3.5,25.5 C 3.83333,26.5 4.5,27.1667 5.5,27.5C 5.26714,29.0618 4.60048,30.3951 3.5,31.5C 2.83333,31.5 2.16667,31.5 1.5,31.5C 1.16667,30.5 0.5,29.8333 -0.5,29.5C -0.5,28.8333 -0.5,28.1667 -0.5,27.5C 0.60486,26.3995 1.93819,25.7329 3.5,25.5 Z"/></g>
</svg>