<svg xmlns="http://www.w3.org/2000/svg" version="1.1" width="30px" height="30px" viewBox="-2 0 32 34">
    <g><path style="opacity:1" fill="#d5d5d5" d="M 17.5,7.5 C 16.596,8.20895 16.2627,9.20895 16.5,10.5C 15.5655,9.43236 15.2322,8.09903 15.5,6.5C 16.8502,4.31709 18.6836,2.65042 21,1.5C 22.2575,1.84987 22.5908,2.51654 22,3.5C 20.6288,5.04138 19.1288,6.37471 17.5,7.5 Z"/></g>
    <g><path style="opacity:1" fill="#bdbdbd" d="M 23.5,13.5 C 22.791,14.404 21.791,14.7373 20.5,14.5C 19.8333,14.1667 19.1667,13.8333 18.5,13.5C 17.8333,12.5 17.1667,11.5 16.5,10.5C 16.2627,9.20895 16.596,8.20895 17.5,7.5C 17.3505,8.55198 17.5172,9.55198 18,10.5C 20.5313,7.11194 23.698,4.77861 27.5,3.5C 26.2214,7.302 23.8881,10.4687 20.5,13C 21.448,13.4828 22.448,13.6495 23.5,13.5 Z"/></g>
    <g><path style="opacity:1" fill="#527c70" d="M 15.5,6.5 C 15.2322,8.09903 15.5655,9.43236 16.5,10.5C 17.1667,11.5 17.8333,12.5 18.5,13.5C 17.5,14.1667 16.5,14.8333 15.5,15.5C 15.5,14.8333 15.1667,14.5 14.5,14.5C 14.1936,11.6146 14.5269,8.9479 15.5,6.5 Z"/></g>
    <g><path style="opacity:1" fill="#c9c9c9" d="M 24.5,15.5 C 22.901,15.7678 21.5676,15.4345 20.5,14.5C 21.791,14.7373 22.791,14.404 23.5,13.5C 24.6253,11.8712 25.9586,10.3712 27.5,9C 28.4835,8.40921 29.1501,8.74254 29.5,10C 28.3496,12.3164 26.6829,14.1498 24.5,15.5 Z"/></g>
    <g><path style="opacity:1" fill="#3e675b" d="M 18.5,13.5 C 19.1667,13.8333 19.8333,14.1667 20.5,14.5C 21.5676,15.4345 22.901,15.7678 24.5,15.5C 21.0614,16.0193 17.728,17.0193 14.5,18.5C 14.2627,17.209 14.596,16.209 15.5,15.5C 16.5,14.8333 17.5,14.1667 18.5,13.5 Z"/></g>
    <g><path style="opacity:1" fill="#3b7465" d="M 14.5,14.5 C 15.1667,14.5 15.5,14.8333 15.5,15.5C 14.596,16.209 14.2627,17.209 14.5,18.5C 10.5,22.8333 6.5,27.1667 2.5,31.5C 1.5,31.5 0.5,31.5 -0.5,31.5C -0.5,30.5 -0.5,29.5 -0.5,28.5C 4.5,23.8333 9.5,19.1667 14.5,14.5 Z"/></g>
</svg>